Coordinates
version=1
nRows=7
nColumns=63
inDegrees=yes

Units are S.I. units (second, meters, Newtons, ...)
If the header above contains a line with 'inDegrees', this indicates whether rotational values are in degrees (yes) or radians (no).

endheader
time	pelvis_tilt	pelvis_list	pelvis_rotation	pelvis_tx	pelvis_ty	pelvis_tz	hip_flexion_r	hip_adduction_r	hip_rotation_r	knee_angle_r	knee_angle_r_beta	ankle_angle_r	subtalar_angle_r	mtp_angle_r	hip_flexion_l	hip_adduction_l	hip_rotation_l	knee_angle_l	knee_angle_l_beta	ankle_angle_l	subtalar_angle_l	mtp_angle_l	L5_S1_Flex_Ext	L5_S1_Lat_Bending	L5_S1_axial_rotation	L4_L5_Flex_Ext	L4_L5_Lat_Bending	L4_L5_axial_rotation	L3_L4_Flex_Ext	L3_L4_Lat_Bending	L3_L4_axial_rotation	L2_L3_Flex_Ext	L2_L3_Lat_Bending	L2_L3_axial_rotation	L1_L2_Flex_Ext	L1_L2_Lat_Bending	L1_L2_axial_rotation	L1_T12_Flex_Ext	L1_T12_Lat_Bending	L1_T12_axial_rotation	Abs_r3	Abs_r2	Abs_r1	Abs_t1	Abs_t2	neck_flexion	neck_bending	neck_rotation	arm_flex_r	arm_add_r	arm_rot_r	elbow_flex_r	pro_sup_r	wrist_flex_r	wrist_dev_r	arm_flex_l	arm_add_l	arm_rot_l	elbow_flex_l	pro_sup_l	wrist_flex_l	wrist_dev_l
      3.70000000	     10.51030027	     -9.11954347	    128.64118906	     -0.37285557	      0.90322284	      0.05151436	     16.61315407	      5.00503567	    -69.84556276	      5.17010695	      0.09023539	    -23.35830638	    -19.79487262	      0.00000000	     19.88218315	     10.77357581	     39.81791106	     42.82268191	      0.74739679	    -59.84798188	     19.64490160	      0.00000000	      0.23560359	     -0.50711403	      4.85114568	      0.43753943	     -0.67446166	      5.15434229	      0.38707314	     -1.23299706	      5.15434229	      0.26927134	     -1.23299706	      4.24475247	      0.21878149	     -1.03410693	      3.94155587	      0.13462389	     -0.78551963	      3.63835926	      1.68289289	     -5.73657534	     26.98061695	      0.00000000	      0.00000000	     27.87401095	    -34.91939890	    -44.02082303	      8.89039529	     -9.50812261	   -168.70780399	     25.50559288	    -21.68281675	     20.00472531	      5.00000014	     21.97809598	    -21.78018050	    135.56756881	     22.13656526	     56.70338911	     20.00472531	      5.00000014
      3.73333333	     11.56525066	     -7.57089369	    127.94103642	     -0.37553009	      0.90489002	      0.05396163	     17.03204917	      5.54696176	    -69.83932021	      8.93972310	      0.15602760	    -19.52354790	    -19.79053310	      0.00000000	     19.19916976	      9.66822574	     39.81803825	     43.76147628	      0.76378185	    -59.85717554	     19.68173857	      0.00000000	      0.24802283	     -0.29424053	      4.92385823	      0.46060319	     -0.39133991	      5.23159936	      0.40747670	     -0.71541643	      5.23159936	      0.28346529	     -0.71541643	      4.30837595	      0.23031400	     -0.60001529	      4.00063481	      0.14172024	     -0.45577858	      3.69289367	      1.77160224	     -3.32850774	     27.38502229	      0.00000000	      0.00000000	     27.86942642	    -35.04406515	    -44.01677364	      8.60102950	    -10.22123303	   -168.41795769	     25.28519503	    -22.56989407	     20.00470909	      5.00000014	     21.42050746	    -20.72456166	    137.09788893	     22.17124685	     57.22791470	     20.00470909	      5.00000014
      3.76666667	     12.18486096	     -6.51512111	    127.48184058	     -0.37827970	      0.90574948	      0.05773269	     18.39568657	      3.24551975	    -69.82977571	     17.92679172	      0.31288154	    -13.02860309	    -19.78682686	      0.00000000	     19.09654010	      9.22063995	     39.81833705	     44.76105028	      0.78122770	    -59.86384337	     19.69572675	      0.00000000	      0.24654105	     -0.16644776	      4.94617789	      0.45785139	     -0.22137552	      5.25531401	      0.40504229	     -0.40470108	      5.25531401	      0.28177177	     -0.40470108	      4.32790565	      0.22893802	     -0.33942027	      4.01876954	      0.14087356	     -0.25782758	      3.70963342	      1.76101808	     -1.88289035	     27.50915757	      0.00000000	      0.00000000	     27.86214482	    -34.85850584	    -44.01124341	      8.59410081	    -10.69757545	   -167.94856509	     25.03351917	    -23.55568296	     20.00469007	      5.00000014	     21.09736146	    -19.99981141	    138.33742934	     22.46526443	     57.56905187	     20.00469007	      5.00000014
      3.80000000	     12.18843721	     -6.10566689	    127.09049348	     -0.38057768	      0.90533533	      0.06210991	     20.30841920	     -0.63616377	    -69.81963657	     28.62235909	      0.49955441	     -6.80591276	    -19.77988602	      0.00000000	     19.55083864	      9.65616641	     39.81847210	     45.97165427	      0.80235673	    -59.86794610	     19.69638415	      0.00000000	      0.23236705	     -0.16059113	      4.94201683	      0.43152885	     -0.21358621	      5.25089288	      0.38175583	     -0.39046128	      5.25089288	      0.26557230	     -0.39046128	      4.32426473	      0.21577604	     -0.32747744	      4.01538868	      0.13277453	     -0.24875566	      3.70651262	      1.65977460	     -1.81663900	     27.48601501	      0.00000000	      0.00000000	     27.85346576	    -34.43245303	    -44.00634906	      8.94851824	    -10.72606832	   -167.56163021	     24.80769402	    -23.99003369	     20.00468101	      5.00000014	     20.71748641	    -19.84391628	    138.53177101	     22.36355339	     57.60437486	     20.00468101	      5.00000014
      3.83333333	     11.50426060	     -6.26785921	    126.06183275	     -0.38149902	      0.90388440	      0.06610908	     22.28188221	     -4.76304462	    -69.81586584	     38.28969321	      0.66828122	     -1.96186950	    -19.76735364	      0.00000000	     20.28941474	     10.90520684	     39.81620145	     47.36655404	      0.82670232	    -59.86869835	     19.69652481	      0.00000000	      0.19507096	     -0.28468299	      5.06191194	      0.36226627	     -0.37862838	      5.37828144	      0.32048207	     -0.69217822	      5.37828144	      0.22294660	     -0.69217822	      4.42917295	      0.18114289	     -0.58052555	      4.11280345	      0.11146354	     -0.44097395	      3.79643396	      1.39337233	     -3.22039091	     28.15283566	      0.00000000	      0.00000000	     27.84255555	    -33.46082795	    -44.00067258	      9.62819195	    -10.07870825	   -166.76984775	     24.66337571	    -24.39982121	     20.00467079	      5.00000014	     20.91906365	    -20.54853195	    138.21180816	     23.26635068	     57.49207538	     20.00467079	      5.00000014
      3.86666667	     10.35444154	     -6.80939029	    124.48764491	     -0.38149981	      0.90158728	      0.06975088	     24.13759059	     -8.90256017	    -69.82249089	     46.66351975	      0.81443206	      1.33107571	    -19.75049886	      0.00000000	     21.27879961	     12.70927547	     39.80936905	     48.92512827	      0.85390458	    -59.86630701	     19.69937576	      0.00000000	      0.15110901	     -0.49387801	      5.26048234	      0.28062455	     -0.65685775	      5.58926249	      0.24825700	     -1.20081499	      5.58926249	      0.17270249	     -1.20081499	      4.60292205	      0.14031983	     -1.00711603	      4.27414190	      0.08634369	     -0.76501703	      3.94536176	      1.07935656	     -5.58684679	     29.25722464	      0.00000000	      0.00000000	     27.83249984	    -32.33512681	    -43.99675824	     10.52231900	     -9.02539873	   -165.77219481	     24.43911690	    -24.67407607	     20.00466283	      5.00000014	     20.75307798	    -21.48095160	    137.62088831	     23.10376072	     57.33411769	     20.00466283	      5.00000014
      3.90000000	      8.65291184	     -7.78675407	    122.58435427	     -0.38078966	      0.89881316	      0.07281558	     25.72453336	    -13.33947177	    -69.83545257	     53.62828007	      0.93599006	      3.05269461	    -19.73260040	      0.00000000	     22.37129391	     15.08615554	     39.79568043	     50.17311961	      0.87568613	    -59.85979310	     19.70518302	      0.00000000	      0.09668169	     -0.79869576	      5.49526457	      0.17954757	     -1.06226536	      5.83871860	      0.15883835	     -1.94194887	      5.83871860	      0.11049751	     -1.94194887	      4.80835650	      0.08977862	     -1.62870039	      4.46490246	      0.05524392	     -1.23717973	      4.12144843	      0.69058767	     -9.03500617	     30.56301295	      0.00000000	      0.00000000	     27.82259107	    -30.21921813	    -43.98724426	     11.06381551	     -6.64918022	   -158.18926692	     23.42137845	    -26.85050885	     20.00459617	      5.00000014	     19.82828477	    -23.68982333	    130.91659332	     22.86812190	     56.13207417	     20.00459617	      5.00000014
